<?xml version="1.0" encoding="utf-8"?>
<!-- Generator: Adobe Illustrator 24.1.3, SVG Export Plug-In . SVG Version: 6.00 Build 0)  -->
<svg version="1.1" id="레이어_1" xmlns="http://www.w3.org/2000/svg" xmlns:xlink="http://www.w3.org/1999/xlink" x="0px"
	 y="0px" viewBox="0 0 576 415.6" style="enable-background:new 0 0 576 415.6;" xml:space="preserve">
<path d="M552,302.1H438.7c-13.3,0-24-10.8-24-24V137.6c0-13.3,10.8-24,24-24H552c13.3,0,24,10.8,24,24V278
	C576,291.3,565.2,302.1,552,302.1z"/>
<path d="M195.7,161.8c-26.7,0-48.4,21.7-48.4,48.4s21.7,48.4,48.4,48.4v-50.8V161.8z"/>
<path d="M376.7,93.6L240.6,4c-16-10.5-37.3,0.9-37.3,20.1v137.7v46.1v50.8v132.9c0,19.1,21.3,30.6,37.3,20.1L376.7,322l19.6-12.9
	c6.8-4.4,10.8-12,10.8-20.1V126.6c0-8.1-4.1-15.6-10.8-20.1L376.7,93.6z"/>
<g>
	<line x1="13.2" y1="207.8" x2="125.6" y2="207.8"/>
	<path d="M125.6,218.2H13.2c-5.7,0-10.3-4.6-10.3-10.3s4.6-10.3,10.3-10.3h112.3c5.7,0,10.3,4.6,10.3,10.3S131.3,218.2,125.6,218.2z
		"/>
</g>
<g>
	<line x1="125.6" y1="161.8" x2="11.4" y2="47.6"/>
	<path d="M125.6,172.1c-2.6,0-5.3-1-7.3-3L4.1,55c-4-4-4-10.6,0-14.6c4-4,10.6-4,14.6,0l114.1,114.1c4,4,4,10.6,0,14.6
		C130.8,171.1,128.2,172.1,125.6,172.1z"/>
</g>
<g>
	<line x1="125.6" y1="253.9" x2="11.4" y2="368"/>
	<path d="M11.4,378.3c-2.6,0-5.3-1-7.3-3c-4-4-4-10.6,0-14.6l114.1-114.1c4-4,10.6-4,14.6,0c4,4,4,10.6,0,14.6L18.7,375.3
		C16.7,377.3,14.1,378.3,11.4,378.3z"/>
</g>
</svg>
