<?xml version="1.0" encoding="utf-8"?>
<!-- Generator: Adobe Illustrator 24.1.3, SVG Export Plug-In . SVG Version: 6.00 Build 0)  -->
<svg version="1.1" id="레이어_1" xmlns="http://www.w3.org/2000/svg" xmlns:xlink="http://www.w3.org/1999/xlink" x="0px"
	 y="0px" viewBox="0 0 512 512" style="enable-background:new 0 0 512 512;" xml:space="preserve">
<style type="text/css">
	.st0{fill:none;}
</style>
<line class="st0" x1="244.4" y1="512" x2="267.9" y2="512"/>
<g>
	<ellipse cx="335.8" cy="321.5" rx="17.7" ry="17.7"/>
	<path d="M344.5,259.6V189c0-9.8-7.8-17.7-17.7-17.7H185.2c-9.8,0-17.7,7.8-17.7,17.7v70.6c0,9.8,7.8,17.7,17.7,17.7h141.6
		C336.7,277.4,344.5,269.2,344.5,259.6z"/>
	<path d="M256.1,0C114.8,0,0.1,114.6,0.1,256s114.6,256,256,256s256-114.6,256-256S397.5,0,256.1,0z M397.7,246.4
		c0,7.2-6,13.2-13.2,13.2H380v92c0,7.1-5.3,14.1-14.1,14.1h-3.6v17.7c0,9.8-7.8,17.7-17.7,17.7h-17.7c-9.8,0-17.7-7.8-17.7-17.7
		v-17.7H202.9v17.7c0,9.8-7.8,17.7-17.7,17.7h-17.7c-9.8,0-17.7-7.8-17.7-17.7v-17.7c-9.8,0-17.7-7.8-17.7-17.7v-88.4h-4.3
		c-7.2,0-13.2-6-13.2-13.2v-44.2c0-7.2,6-13.2,13.2-13.2h4.5v-26.6c0-24.8,54.9-44.2,123.8-44.2s123.8,19.4,123.8,44.2v26.4h4.5
		c7.2,0,13.2,6,13.2,13.2v44.2h0.2V246.4z"/>
	<ellipse cx="176.5" cy="321.5" rx="17.7" ry="17.7"/>
</g>
</svg>
