<?xml version="1.0" encoding="utf-8"?>
<!-- Generator: Adobe Illustrator 24.1.3, SVG Export Plug-In . SVG Version: 6.00 Build 0)  -->
<svg version="1.1" id="레이어_1" xmlns="http://www.w3.org/2000/svg" xmlns:xlink="http://www.w3.org/1999/xlink" x="0px"
	 y="0px" viewBox="0 0 512 512" style="enable-background:new 0 0 512 512;" xml:space="preserve">
<path d="M488,128h-8V80c0-44.8-99.2-80-224-80S32,35.2,32,80v48h-8c-13.3,0-24,10.7-24,24v80c0,13.3,10.8,24,24,24h8v160
	c0,17.7,14.3,32,32,32v32c0,17.7,14.3,32,32,32h32c17.7,0,32-14.3,32-32v-32h192v32c0,17.7,14.3,32,32,32h32c17.7,0,32-14.3,32-32
	v-32h6.4c16,0,25.6-12.8,25.6-25.6V256h8c13.3,0,24-10.8,24-24v-80C512,138.7,501.3,128,488,128z M112,400c-17.7,0-32-14.3-32-32
	s14.3-32,32-32s32,14.3,32,32S129.7,400,112,400z M128,288c-17.7,0-32-14.3-32-32V128c0-17.7,14.3-32,32-32h256
	c17.7,0,32,14.3,32,32v128c0,17.7-14.3,32-32,32H128z M400,400c-17.7,0-32-14.3-32-32s14.3-32,32-32s32,14.3,32,32
	S417.7,400,400,400z"/>
<g>
	<path d="M198.6,176.9c0,4.5-0.7,8.7-2.2,12.6c-1.5,3.9-3.5,7.2-6.1,9.9c-2.6,2.9-5.7,5.1-9.2,6.7c-3.5,1.6-7.3,2.5-11.4,2.5
		c-4.1,0-7.9-0.8-11.4-2.5c-3.5-1.6-6.6-3.9-9.2-6.7c-2.6-2.8-4.6-6.1-6.1-9.9c-1.5-3.9-2.2-8.1-2.2-12.6c0-4.5,0.7-8.7,2.2-12.6
		c1.5-3.9,3.5-7.2,6.1-10.1c2.6-2.8,5.7-5.1,9.2-6.7c3.5-1.6,7.3-2.5,11.4-2.5c4.1,0,7.9,0.8,11.4,2.5c3.5,1.6,6.6,3.9,9.2,6.7
		c2.6,2.9,4.6,6.2,6.1,10.1C197.8,168.2,198.6,172.4,198.6,176.9z M186,176.9c0-2.9-0.4-5.5-1.2-7.9c-0.8-2.4-1.9-4.6-3.3-6.4
		c-1.5-1.8-3.3-3.3-5.2-4.3c-2-1-4.1-1.6-6.5-1.6c-2.3,0-4.4,0.5-6.4,1.6c-2,1-3.7,2.5-5.2,4.2c-1.5,1.8-2.7,4-3.6,6.5
		c-0.9,2.5-1.3,5.1-1.3,8c0,2.8,0.4,5.4,1.3,7.8c0.8,2.4,2,4.5,3.5,6.3c1.4,1.8,3.1,3.3,5.2,4.4c2,1.1,4.2,1.6,6.5,1.6
		c2.3,0,4.4-0.5,6.4-1.6c2-1,3.7-2.5,5.2-4.3c1.4-1.8,2.6-4,3.4-6.4C185.6,182.3,186,179.7,186,176.9z M206.4,162.6h-12.6V151h12.6
		v-16.4h12.2v112.7h-12.2v-47h-12.6v-11.6h12.6V162.6z M241.7,251.1h-12.2V132.9h12.2V251.1z"/>
	<path d="M324,163.7c0,4-0.8,7.8-2.3,11.2c-1.5,3.4-3.6,6.4-6.2,8.9c-2.7,2.5-5.8,4.5-9.4,5.9c-3.6,1.4-7.5,2.1-11.6,2.1
		c-4.1,0-8-0.7-11.6-2.1c-3.6-1.4-6.7-3.3-9.3-5.8c-2.7-2.4-4.8-5.4-6.4-8.8c-1.6-3.4-2.3-7.3-2.3-11.4c0-4.1,0.8-7.9,2.3-11.3
		c1.5-3.4,3.6-6.4,6.3-8.9c2.7-2.4,5.8-4.3,9.4-5.7c3.6-1.4,7.4-2.1,11.6-2.1c4.1,0,8,0.7,11.6,2.1c3.6,1.4,6.8,3.4,9.4,5.9
		c2.6,2.5,4.7,5.5,6.2,8.9S324,159.7,324,163.7z M310.9,163.7c0-2.3-0.4-4.5-1.3-6.5c-0.8-2-2-3.8-3.4-5.3c-1.5-1.4-3.3-2.6-5.2-3.4
		c-2-0.8-4.1-1.3-6.4-1.3c-2.3,0-4.4,0.4-6.4,1.3c-2,0.8-3.8,2-5.3,3.4c-1.5,1.4-2.7,3.2-3.6,5.2c-0.9,2.1-1.3,4.3-1.3,6.6
		c0,2.4,0.4,4.7,1.3,6.7c0.8,2,2,3.7,3.5,5.2c1.4,1.5,3.1,2.7,5.2,3.5c2,0.8,4.2,1.3,6.7,1.3c2.3,0,4.4-0.4,6.4-1.3
		c2-0.8,3.7-2,5.2-3.5c1.4-1.4,2.6-3.1,3.4-5.2C310.5,168.3,310.9,166.1,310.9,163.7z M340.1,248.6v-32.5h-59.8v-11.6h72.7v44H340.1
		z M353.1,179.7v16.1h-13v-62.9h13v12.8h18.2v10.8h-18.2V169h18.2v10.7H353.1z"/>
</g>
</svg>
