<?xml version="1.0" encoding="utf-8"?>
<!-- Generator: Adobe Illustrator 24.1.3, SVG Export Plug-In . SVG Version: 6.00 Build 0)  -->
<svg version="1.1" id="레이어_1" xmlns="http://www.w3.org/2000/svg" xmlns:xlink="http://www.w3.org/1999/xlink" x="0px"
	 y="0px" viewBox="0 0 640 512" style="enable-background:new 0 0 640 512;" xml:space="preserve">
<style type="text/css">
	.st0{fill:#FFFFFF;}
	.st1{fill:none;stroke:#FFFFFF;stroke-width:15;stroke-miterlimit:10;}
</style>
<path d="M624,32H16C7.2,32,0,39.2,0,48v400c0,17.7,14.3,32,32,32h576c17.7,0,32-14.3,32-32V48C640,39.2,632.8,32,624,32z"/>
<path class="st0" d="M607.9,152.7l-24.2-24.2c-8.1-8.1-18.7-12.1-29.3-12.1c-10.6,0-21.2,4-29.2,12.1L477,176.6l-22.5,22.5
	L297.4,356.2l-8.2,73.8c-1,9.3,6.3,17.2,15.4,17.2c0.6,0,1.2,0,1.7-0.1L380,439l157.2-157.2l22.5-22.5l48.1-48.1
	C624,195,624,168.9,607.9,152.7L607.9,152.7z M365.8,409.4l-43.7,4.8l4.9-43.8L476.5,221l20.1-20.1l38.9,38.9l-20.1,20.1
	L365.8,409.4L365.8,409.4z M585.9,189.3l-28.6,28.6L518.5,179l28.6-28.6c2.6-2.6,5.7-3,7.3-3c1.6,0,4.7,0.4,7.3,3l24.2,24.2
	C590,178.7,590,185.2,585.9,189.3z"/>
<path class="st0" d="M216.6,81.8L106.3,192.1l-40.5-40.5c-2-2-5.1-2-7.1,0l-11.9,11.9c-2,2-2,5.1,0,7.1l55.9,55.9c2,2,5.1,2,7.1,0
	l125.6-125.6c2-2,2-5.1,0-7.1l-11.9-11.9C221.7,79.9,218.5,79.9,216.6,81.8z"/>
<path class="st1" d="M136.3,163.5h-49c-9.9,0-17.9,8-17.9,17.9v49c0,9.9,8,17.9,17.9,17.9h49c9.9,0,17.9-8,17.9-17.9v-49
	C154.2,171.5,146.2,163.5,136.3,163.5z"/>
<path class="st1" d="M136.3,329.4h-49c-9.9,0-17.9,8-17.9,17.9v49c0,9.9,8,17.9,17.9,17.9h49c9.9,0,17.9-8,17.9-17.9v-49
	C154.2,337.5,146.2,329.4,136.3,329.4z"/>
</svg>
