<?xml version="1.0" encoding="utf-8"?>
<!-- Generator: Adobe Illustrator 24.1.3, SVG Export Plug-In . SVG Version: 6.00 Build 0)  -->
<svg version="1.1" id="레이어_1" xmlns="http://www.w3.org/2000/svg" xmlns:xlink="http://www.w3.org/1999/xlink" x="0px"
	 y="0px" viewBox="0 0 512 512" style="enable-background:new 0 0 512 512;" xml:space="preserve">
<path d="M488.1,128h-8V80c0-44.8-99.2-80-224-80s-224,35.2-224,80v48h-8c-13.3,0-24,10.7-24,24v80c0,13.3,10.8,24,24,24h8v160
	c0,17.7,14.3,32,32,32v32c0,17.7,14.3,32,32,32h32c17.7,0,32-14.3,32-32v-32h192v32c0,17.7,14.3,32,32,32h32c17.7,0,32-14.3,32-32
	v-32h6.4c16,0,25.6-12.8,25.6-25.6V256h8c13.3,0,24-10.8,24-24v-80C512.1,138.7,501.4,128,488.1,128z M112.1,400
	c-17.7,0-32-14.3-32-32s14.3-32,32-32s32,14.3,32,32S129.8,400,112.1,400z M128.1,288c-17.7,0-32-14.3-32-32V128
	c0-17.7,14.3-32,32-32h256c17.7,0,32,14.3,32,32v128c0,17.7-14.3,32-32,32H128.1z M400.1,400c-17.7,0-32-14.3-32-32s14.3-32,32-32
	s32,14.3,32,32S417.8,400,400.1,400z"/>
<g>
	<path d="M144.6,214.9v-71.6h54v71.6H144.6z M185.5,154.9h-27.8v48.4h27.8V154.9z M229.4,188.1v63h-13.1V132.9h13.1v43.8h19.5v11.4
		H229.4z"/>
	<path d="M367.5,184.1v11.6h-112v-11.6H367.5z M346.9,231h-57.7v8.6h59v10.3h-72.1v-29.1h57.7v-7.9h-57.7v-10.3h70.8V231z
		 M344,155.6c0,3.4-0.8,6.5-2.5,9.3c-1.6,2.8-3.9,5.1-6.7,7c-2.9,1.9-6.4,3.4-10.4,4.5c-4,1-8.4,1.6-13.1,1.6
		c-4.6,0-8.9-0.5-12.8-1.5c-3.9-1-7.3-2.5-10.2-4.4c-2.9-1.9-5.2-4.3-6.9-7c-1.6-2.8-2.5-5.9-2.5-9.4c0-3.6,0.8-6.8,2.5-9.6
		c1.7-2.8,4-5.1,6.9-7c2.8-1.9,6.2-3.4,10.2-4.4c3.9-1,8.2-1.5,12.7-1.5c4.7,0,9,0.5,13,1.6c4,1,7.4,2.5,10.4,4.5
		c2.9,1.9,5.2,4.3,6.9,7C343.2,149,344,152.1,344,155.6z M330.9,155.6c0-1.8-0.5-3.5-1.5-4.9c-1-1.4-2.4-2.6-4.2-3.6
		c-1.8-0.9-3.8-1.6-6.2-2.1c-2.4-0.5-5-0.8-7.7-0.8c-2.6,0-5.1,0.3-7.4,0.8c-2.3,0.5-4.4,1.2-6.2,2.1c-1.8,0.9-3.2,2.1-4.2,3.6
		c-1,1.5-1.6,3.1-1.6,5c0,1.9,0.5,3.6,1.6,5c1,1.4,2.5,2.6,4.2,3.5c1.8,0.9,3.8,1.6,6.2,2.1c2.3,0.5,4.8,0.7,7.4,0.7
		c2.8,0,5.3-0.2,7.7-0.7c2.4-0.5,4.5-1.2,6.2-2.1c1.8-0.9,3.1-2.1,4.2-3.5C330.4,159.3,330.9,157.6,330.9,155.6z"/>
</g>
</svg>
