<?xml version="1.0" encoding="utf-8"?>
<!-- Generator: Adobe Illustrator 24.1.3, SVG Export Plug-In . SVG Version: 6.00 Build 0)  -->
<svg version="1.1" id="레이어_1" xmlns="http://www.w3.org/2000/svg" xmlns:xlink="http://www.w3.org/1999/xlink" x="0px"
	 y="0px" viewBox="0 0 512 733.3" style="enable-background:new 0 0 512 733.3;" xml:space="preserve">
<style type="text/css">
	.st0{fill:none;}
</style>
<g>
	<path d="M194.9,357.7c4.6,0,8.8,0.9,12.6,2.6c3.8,1.7,7.1,4,9.9,6.9c2.8,2.9,4.9,6.3,6.5,10c1.6,3.7,2.3,7.7,2.3,11.8
		c0,5.8-1.4,11.2-4.3,16.2c-2.9,5-7,9.2-12.6,12.5c-4.3,2.6-8.3,5.2-12,7.8c-3.7,2.6-6.9,5.2-9.6,7.7c-2.8,2.6-4.9,5.1-6.5,7.5
		c-1.6,2.4-2.3,4.8-2.3,7.2h49.2v10.4h-65.8c0-4.4,0.8-8.6,2.3-12.8c1.5-4.2,3.9-8.3,7-12.3c3.2-4,7.2-8,12.1-12
		c4.9-3.9,10.8-7.9,17.7-11.8c4-2.7,7-5.8,9.1-9.3c2-3.5,3-7.1,3-10.8c0-2.7-0.5-5.2-1.4-7.6c-1-2.4-2.3-4.5-4-6.4
		c-1.7-1.8-3.7-3.3-6-4.3c-2.3-1-4.8-1.6-7.4-1.6c-2.4,0-4.8,0.5-7,1.4c-2.3,0.9-4.2,2.2-5.9,3.9c-1.7,1.7-3,3.7-4,6
		c-1,2.3-1.5,4.8-1.5,7.6h-13.2c0-4,0.9-7.9,2.6-11.6c1.7-3.7,4-6.9,7-9.7c2.8-2.8,6.2-5,10-6.7
		C186.6,358.6,190.6,357.7,194.9,357.7z"/>
	<path d="M349.5,407.4V419h-112v-11.6H349.5z M303.7,373.3c1.3,2,3.3,4,5.8,5.9c2.5,1.9,5.3,3.7,8.4,5.3c3.1,1.7,6.4,3.2,10,4.5
		c3.6,1.3,7.1,2.2,10.6,2.8l-7.2,9.1c-9.2-1.7-17.2-4.3-23.8-7.8c-6.6-3.5-11.4-7.5-14.2-11.8c-3.3,4.6-8.1,8.6-14.5,12
		s-14.2,5.9-23.3,7.6l-7-9.1c4-0.7,7.9-1.6,11.6-2.9c3.7-1.3,7.1-2.7,10.2-4.4c3.1-1.6,5.8-3.4,8.1-5.3c2.3-1.9,3.9-3.9,4.9-5.9
		h-30.1v-10.7h33.7v-10.3H300v10.3h33.8v10.7H303.7z M324.7,449.3c0,3.7-0.8,7.1-2.3,10.2c-1.6,3.1-3.7,5.7-6.5,7.9
		c-2.8,2.2-6.1,3.9-9.9,5.1c-3.8,1.2-8,1.8-12.6,1.8c-4.5,0-8.7-0.6-12.5-1.8c-3.8-1.2-7.1-2.9-9.9-5.1c-2.8-2.2-4.9-4.8-6.5-7.9
		c-1.6-3.1-2.3-6.5-2.3-10.2c0-3.5,0.8-6.8,2.3-9.9c1.5-3.1,3.6-5.7,6.4-8c2.8-2.3,6.1-4.1,9.9-5.4c3.8-1.3,8-2,12.6-2
		c4.6,0,8.8,0.6,12.7,1.8c3.9,1.2,7.2,2.9,9.9,5.1c2.8,2.2,4.9,4.8,6.4,8C324,442.1,324.7,445.5,324.7,449.3z M311.7,449.3
		c0-2.1-0.5-4-1.4-5.7c-1-1.7-2.2-3.1-3.8-4.4c-1.7-1.2-3.6-2.1-5.8-2.7c-2.2-0.6-4.5-0.9-7-0.9c-2.5,0-4.9,0.3-7,0.9
		c-2.2,0.6-4.1,1.5-5.8,2.7c-1.7,1.2-3,2.6-4,4.3c-1,1.7-1.4,3.6-1.4,5.7c0,2.1,0.5,4,1.4,5.6c1,1.6,2.3,3,4,4.2
		c1.7,1.2,3.6,2.1,5.8,2.7c2.2,0.6,4.5,0.9,7,0.9c2.5,0,4.9-0.3,7-0.9c2.2-0.6,4.1-1.5,5.8-2.7c1.6-1.2,2.9-2.6,3.8-4.3
		C311.2,453.2,311.7,451.3,311.7,449.3z"/>
</g>
<path class="st0" d="M416,477.3v-128c0-17.7-14.3-32-32-32H128c-17.7,0-32,14.3-32,32v128c0,17.7,14.3,32,32,32h256
	C401.7,509.3,416,495,416,477.3z"/>
<g>
	<path d="M488,349.3h-8v-40H32v40h-8c-13.3,0-24,10.7-24,24v80c0,13.3,10.8,24,24,24h8v160c0,17.7,14.3,32,32,32v32
		c0,17.7,14.3,32,32,32h32c17.7,0,32-14.3,32-32v-32h192v32c0,17.7,14.3,32,32,32h32c17.7,0,32-14.3,32-32v-32h6.4
		c16,0,25.6-12.8,25.6-25.6V477.3h8c13.3,0,24-10.8,24-24v-80C512,360,501.3,349.3,488,349.3z M112,621.3c-17.7,0-32-14.3-32-32
		s14.3-32,32-32s32,14.3,32,32S129.7,621.3,112,621.3z M128,509.3c-17.7,0-32-14.3-32-32v-128c0-17.7,14.3-32,32-32h256
		c17.7,0,32,14.3,32,32v128c0,17.7-14.3,32-32,32H128z M400,621.3c-17.7,0-32-14.3-32-32s14.3-32,32-32s32,14.3,32,32
		S417.7,621.3,400,621.3z"/>
	<path d="M256,0C131.2,0,32,35.2,32,80v8v221.3h448V88v-8C480,35.2,380.8,0,256,0z M416,189.3c0,15.3-12.4,27.6-27.6,27.6H123.6
		c-15.3,0-27.6-12.4-27.6-27.6v-84.3c0-15.3,12.4-27.6,27.6-27.6h264.8c15.3,0,27.6,12.4,27.6,27.6V189.3z"/>
</g>
</svg>
