<?xml version="1.0" encoding="utf-8"?>
<!-- Generator: Adobe Illustrator 24.1.3, SVG Export Plug-In . SVG Version: 6.00 Build 0)  -->
<svg version="1.1" id="레이어_1" xmlns="http://www.w3.org/2000/svg" xmlns:xlink="http://www.w3.org/1999/xlink" x="0px"
	 y="0px" viewBox="0 0 557.1 512" style="enable-background:new 0 0 557.1 512;" xml:space="preserve">
<path d="M533.2,128h-8V80c0-44.8-99.2-80-224-80s-224,35.2-224,80v48h-8c-13.3,0-24,10.7-24,24v80c0,13.3,10.8,24,24,24h8v160
	c0,17.7,14.3,32,32,32v32c0,17.7,14.3,32,32,32h32c17.7,0,32-14.3,32-32v-32h192v32c0,17.7,14.3,32,32,32h32c17.7,0,32-14.3,32-32
	v-32h6.4c16,0,25.6-12.8,25.6-25.6V256h8c13.3,0,24-10.8,24-24v-80C557.2,138.7,546.5,128,533.2,128z M157.2,400
	c-17.7,0-32-14.3-32-32s14.3-32,32-32s32,14.3,32,32S174.9,400,157.2,400z M173.2,288c-17.7,0-32-14.3-32-32V128
	c0-17.7,14.3-32,32-32h256c17.7,0,32,14.3,32,32v128c0,17.7-14.3,32-32,32H173.2z M445.2,400c-17.7,0-32-14.3-32-32s14.3-32,32-32
	s32,14.3,32,32S462.9,400,445.2,400z"/>
<g>
	<line x1="97" y1="439" x2="9" y2="503"/>
	<path d="M9,512c-2.8,0-5.5-1.3-7.3-3.7c-2.9-4-2-9.6,2-12.6l88-64c4-2.9,9.6-2,12.6,2c2.9,4,2,9.6-2,12.6l-88,64
		C12.7,511.4,10.8,512,9,512z"/>
</g>
<g>
	<path d="M258.1,208.9c-1.5,1.4-3,2.8-4.5,4.2c-1.5,1.4-3,2.8-4.5,4.2c-6.2-4.5-11.6-9.4-16.1-14.6c-4.5-5.2-8.1-10.8-10.7-16.9
		c-2.4,6.1-6,11.9-10.6,17.4c-4.6,5.5-10,10.6-16.1,15.3c-1.4-1.4-2.9-2.9-4.4-4.3c-1.5-1.4-3-2.9-4.4-4.3c5.6-4.2,10.3-8.5,14-12.9
		c3.7-4.4,6.7-8.9,8.9-13.5c2.2-4.6,3.7-9.3,4.6-14c0.9-4.7,1.3-9.5,1.3-14.4h-22.4v-11.6h59.3v11.6h-23.4c0,5.3,0.5,10.3,1.4,15.2
		c1,4.8,2.6,9.5,4.8,13.9c2.3,4.4,5.2,8.7,8.9,12.8C248.1,201,252.7,205,258.1,208.9z M246.6,169h22.6v-36.7h13v118.3h-13v-69.9
		h-22.6V169z"/>
	<path d="M374.9,182.8c-1.5,1.4-3,2.9-4.5,4.3c-1.5,1.5-3,2.9-4.5,4.3c-6.1-2.9-11.5-6.3-16.2-10.4c-4.7-4.1-8.2-8.5-10.4-13.3
		c-2.5,5.5-6.1,10.4-10.8,14.7c-4.7,4.4-10.1,8.2-16.4,11.4c-1.4-1.4-2.9-2.9-4.4-4.3c-1.5-1.5-3-2.9-4.4-4.3
		c4.8-2.5,9-5.3,12.6-8.4c3.6-3.1,6.6-6.3,9.1-9.7c2.4-3.4,4.3-6.9,5.5-10.5c1.2-3.6,1.8-7.1,1.8-10.6v-10.8h13.6v10.8
		c0,6.8,2.4,13.4,7.1,19.9C357.7,172.5,365,178.1,374.9,182.8z M396.5,224.7c0,4-0.8,7.7-2.5,11c-1.7,3.3-3.9,6.2-6.8,8.6
		c-2.9,2.3-6.4,4.2-10.3,5.5c-3.9,1.3-8.1,2-12.6,2c-4.4,0-8.5-0.6-12.3-1.9c-3.9-1.3-7.2-3.1-10.1-5.4c-2.9-2.3-5.2-5.2-6.9-8.6
		c-1.7-3.4-2.5-7.1-2.5-11.2c0-4.3,0.8-8.1,2.5-11.4c1.7-3.4,4-6.2,6.9-8.6c2.8-2.3,6.2-4,10.1-5.3c3.9-1.3,8-1.9,12.3-1.9
		c4.4,0,8.6,0.6,12.6,1.9c3.9,1.3,7.4,3.1,10.3,5.4c2.9,2.4,5.1,5.3,6.8,8.7C395.7,216.9,396.5,220.6,396.5,224.7z M383.4,224.7
		c0-2.4-0.5-4.6-1.5-6.5c-1-1.9-2.3-3.6-4-4.9c-1.8-1.3-3.8-2.4-6.1-3.1c-2.3-0.7-4.8-1.1-7.4-1.1c-2.6,0-5.1,0.4-7.4,1.1
		c-2.3,0.7-4.3,1.7-6,3.1c-1.8,1.4-3.1,3.1-4.2,5c-1,1.9-1.5,4.1-1.5,6.4c0,2.3,0.5,4.5,1.5,6.4c1,1.9,2.4,3.6,4.2,4.9
		c1.8,1.3,3.8,2.4,6.1,3.1c2.3,0.7,4.7,1.1,7.2,1.1c2.5,0,4.9-0.4,7.2-1.1c2.3-0.7,4.3-1.7,6.1-3.1c1.8-1.3,3.1-3,4.2-4.8
		S383.4,227.1,383.4,224.7z M397.3,169.5V195h-13v-62.8h13v25.7h18.2v11.6H397.3z"/>
</g>
</svg>
