<?xml version="1.0" encoding="utf-8"?>
<!-- Generator: Adobe Illustrator 24.1.3, SVG Export Plug-In . SVG Version: 6.00 Build 0)  -->
<svg version="1.1" id="레이어_1" xmlns="http://www.w3.org/2000/svg" xmlns:xlink="http://www.w3.org/1999/xlink" x="0px"
	 y="0px" viewBox="0 0 506.2 490.7" style="enable-background:new 0 0 506.2 490.7;" xml:space="preserve">
<style type="text/css">
	.st0{fill:none;}
</style>
<circle class="st0" cx="1038.2" cy="74.7" r="32"/>
<circle class="st0" cx="1070.2" cy="74.7" r="32"/>
<path d="M86.4,268.4c-47.3,0-85.6,38.3-85.6,85.6c0,38.2,55.9,107.8,77.3,133.1c4.3,5.1,12.1,5.1,16.4,0
	C116,461.8,172,392.2,172,354C172,306.8,133.7,268.4,86.4,268.4z M86.4,404.7c-28.7,0-52-23.3-52-52s23.3-52,52-52s52,23.3,52,52
	C138.4,381.5,115.1,404.7,86.4,404.7z"/>
<path d="M435.6,0c-39,0-70.5,31.6-70.5,70.5c0,31.5,46.1,88.8,63.7,109.7c3.5,4.2,10,4.2,13.5,0C459.9,159.3,506,102,506,70.5
	C506.2,31.6,474.6,0,435.6,0z M435.6,112.3c-23.6,0-42.8-19.2-42.8-42.8s19.2-42.8,42.8-42.8s42.8,19.2,42.8,42.8
	S459.3,112.3,435.6,112.3z"/>
<image style="overflow:visible;" width="469" height="459" xlink:href="473DB7D6.jpg"  transform="matrix(1 0 0 1 -626.5 -54.3)">
</image>
<path d="M109.6,484.8c-2,2.2-0.3,5.7,2.7,5.5c51.9-4.5,330-32.1,330-109.7c0-78.5-116.7-39.9-116.7-123.6c0-48.6,70.6-65.3,90.4-69
	c2.4-0.4,3.4-3.2,2.1-5.1l-4.3-6c-0.7-0.9-1.8-1.5-2.9-1.4c-16.5,1.2-137.7,12.6-137.7,85.1c0,77.8,82.4,87.1,82.4,112.7
	c0,47.3-217.7,96.2-234.5,99.8c-0.7,0.1-1.3,0.5-1.7,1L109.6,484.8z"/>
</svg>
